<svg xmlns="http://www.w3.org/2000/svg" id="patternId" width="100%" height="100%">
  <defs>
    <pattern id="a" patternUnits="userSpaceOnUse" width="40" height="40" patternTransform="scale(1) rotate(0)">
      <rect x="0" y="0" width="100%" height="100%" fill="hsla(145, 100%, 46%, 1)" />
      <path d="M40 45a5 5 0 110-10 5 5 0 010 10zM0 45a5 5 0 110-10 5 5 0 010 10zM0 5A5 5 0 110-5 5 5 0 010 5zm40 0a5 5 0 110-10 5 5 0 010 10z" stroke-width="2" stroke="hsla(198, 100%, 8%, 1)" fill="none" />
      <path d="M20 25a5 5 0 110-10 5 5 0 010 10z" stroke-width="2" stroke="hsla(198, 100%, 8%, 1)" fill="none" />
    </pattern>
  </defs>
  <rect width="800%" height="800%" transform="translate(-11,0)" fill="url(#a)" />
</svg>